<svg width="512" height="512" viewBox="0 0 256 256" xmlns="http://www.w3.org/2000/svg">
  <rect width="256" height="256" rx="48" fill="#051820"/>
  <rect x="16" y="16" width="224" height="224" rx="40" fill="none" stroke="#0e7490" stroke-opacity="0.35" stroke-width="2"/>
  <rect x="28" y="28" width="200" height="200" rx="30" fill="#07202b" stroke="#67e8f9" stroke-width="4"/>
  <rect x="40" y="40" width="176" height="176" rx="24" fill="#0b2a38" stroke="#67e8f9" stroke-opacity="0.85" stroke-width="1.5"/>

  <!-- DeepSeek 官方标记（simple-icons，viewBox 24 等比缩放到 38px） -->
  <g transform="translate(44 46) scale(1.5833)">
    <path fill="#4D6BFE" d="M23.748 4.651c-.254-.124-.364.113-.512.233-.051.04-.094.09-.137.137-.372.397-.806.657-1.373.626-.829-.046-1.537.214-2.163.848-.133-.782-.575-1.248-1.247-1.548-.352-.155-.708-.311-.955-.65-.172-.24-.219-.509-.305-.774-.055-.16-.11-.323-.293-.35-.2-.031-.278.136-.356.276-.313.572-.434 1.202-.422 1.84.027 1.436.633 2.58 1.838 3.393.137.094.172.187.129.323-.082.28-.18.553-.266.833-.055.179-.137.218-.328.14a5.5 5.5 0 0 1-1.737-1.179c-.857-.828-1.631-1.743-2.597-2.46a12 12 0 0 0-.689-.47c-.985-.957.13-1.743.387-1.836.27-.098.094-.433-.778-.428-.872.003-1.67.295-2.687.685a3 3 0 0 1-.465.136 9.6 9.6 0 0 0-2.883-.101c-1.885.21-3.39 1.1-4.497 2.622C.082 8.776-.231 10.854.152 13.02c.403 2.284 1.568 4.175 3.36 5.653 1.857 1.533 3.997 2.284 6.438 2.14 1.482-.085 3.132-.284 4.994-1.86.47.234.962.328 1.78.398.629.058 1.235-.031 1.705-.129.735-.155.684-.836.418-.961-2.155-1.004-1.682-.595-2.112-.926 1.095-1.295 2.768-3.598 3.284-6.733.05-.346.115-.834.108-1.114-.004-.171.035-.238.23-.257a4.2 4.2 0 0 0 1.545-.475c1.397-.763 1.96-2.016 2.093-3.517.02-.23-.004-.467-.247-.588M11.58 18.168c-2.088-1.642-3.101-2.183-3.52-2.16-.39.024-.32.472-.234.763.09.288.207.487.371.74.114.167.192.416-.113.603-.673.416-1.842-.14-1.897-.168-1.361-.801-2.5-1.86-3.301-3.306-.775-1.393-1.225-2.888-1.299-4.482-.02-.385.094-.522.477-.592a4.7 4.7 0 0 1 1.53-.038c2.131.311 3.946 1.264 5.467 2.774.868.86 1.525 1.887 2.202 2.89.72 1.066 1.494 2.082 2.48 2.915.348.291.626.513.892.677-.802.09-2.14.109-3.055-.615zm1.001-6.44a.306.306 0 0 1 .415-.287.3.3 0 0 1 .113.074.3.3 0 0 1 .086.214c0 .17-.136.307-.308.307a.303.303 0 0 1-.306-.307m3.11 1.596c-.2.081-.4.151-.591.16a1.25 1.25 0 0 1-.798-.254c-.274-.23-.47-.358-.551-.758a1.7 1.7 0 0 1 .015-.588c.07-.327-.007-.537-.238-.727-.188-.156-.426-.199-.689-.199a.6.6 0 0 1-.254-.078.253.253 0 0 1-.114-.358a1 1 0 0 1 .192-.21c.356-.202.767-.136 1.146.016.352.144.618.408 1.001.782.392.451.462.576.685.915.176.264.336.536.446.848.066.194-.02.353-.25.45"/>
  </g>

  <text x="94" y="78" fill="#ecfeff" font-size="25" font-weight="800" font-family="Arial, Helvetica, sans-serif">DeepSeek</text>
  <line x1="40" y1="88" x2="216" y2="88" stroke="#0e7490" stroke-width="1.6" opacity="0.7"/>

  <!-- BAL：绝对量，不画条，只靠配色告警 -->
  <text x="48" y="123" fill="#34d399" font-size="17.6" font-weight="800" font-family="Arial, Helvetica, sans-serif">BAL</text>
  <text x="142" y="123" text-anchor="end" fill="#ecfeff" font-weight="800" font-family="Arial, Helvetica, sans-serif"><tspan font-size="27">42.3</tspan><tspan font-size="15">元</tspan></text>

  <!-- 24h：有预算即有条 -->
  <rect x="42" y="139" width="172" height="34.7" rx="3" fill="#0b2a38" opacity="0.55"/>
  <rect x="42" y="139" width="110" height="34.7" rx="3" fill="#34d399" opacity="0.3"/>
  <text x="48" y="164" fill="#34d399" font-size="17.6" font-weight="800" font-family="Arial, Helvetica, sans-serif">24h</text>
  <text x="142" y="164" text-anchor="end" fill="#ecfeff" font-weight="800" font-family="Arial, Helvetica, sans-serif"><tspan font-size="27">3.20</tspan><tspan font-size="15">元</tspan></text>

  <!-- 7d：tail 只在覆盖率未满时出现 -->
  <rect x="42" y="179.3" width="172" height="34.7" rx="3" fill="#0b2a38" opacity="0.55"/>
  <rect x="42" y="179.3" width="134" height="34.7" rx="3" fill="#fcd34d" opacity="0.3"/>
  <text x="48" y="204" fill="#fcd34d" font-size="17.6" font-weight="800" font-family="Arial, Helvetica, sans-serif">7d</text>
  <text x="142" y="204" text-anchor="end" fill="#ecfeff" font-weight="800" font-family="Arial, Helvetica, sans-serif"><tspan font-size="27">15.6</tspan><tspan font-size="15">元</tspan></text>
  <text x="209" y="204" text-anchor="end" fill="#a5f3fc" font-weight="700" font-family="Arial, Helvetica, sans-serif"><tspan font-size="21.5">83</tspan><tspan font-size="15">%</tspan></text>
</svg>
